<?xml version="1.0" encoding="UTF-8"?>
<svg width="64px" height="64px" viewBox="0 0 64 64" version="1.1"
  xmlns="http://www.w3.org/2000/svg"
  xmlns:xlink="http://www.w3.org/1999/xlink">
  <g id="student" transform="translate(4.000000, 5.000000)" fill-rule="nonzero">
    <path d="M34.8333333,16.5 C34.8333333,17.0062256 34.4228923,17.4166667 33.9166667,17.4166667 C33.4104411,17.4166667 33,17.0062256 33,16.5 C33,15.9937744 33.4104411,15.5833333 33.9166667,15.5833333 C34.4228923,15.5833333 34.8333333,15.9937744 34.8333333,16.5 Z" id="Path" fill="#000000"></path>
    <path d="M42.1666667,16.5 C42.1666667,17.0062256 41.7562256,17.4166667 41.25,17.4166667 C40.7437744,17.4166667 40.3333333,17.0062256 40.3333333,16.5 C40.3333333,15.9937744 40.7437744,15.5833333 41.25,15.5833333 C41.7562256,15.5833333 42.1666667,15.9937744 42.1666667,16.5 Z" id="Path" fill="#000000"></path>
    <path d="M36.6492106,6.69148769 C38.7766113,5.94580078 41.1349691,6.7957764 42.2978108,8.72668454 C42.4647623,9.00061032 42.7624105,9.16756179 43.0833333,9.16667025 C43.4136555,9.1662191 43.7180175,8.98852533 43.8804931,8.70072431 C44.0425212,8.41337074 44.0380452,8.06111648 43.8679606,7.77779131 C42.253947,5.10253906 38.9851888,3.92582197 36.0360108,4.95841477 C35.5575357,5.12760417 35.3064371,5.65307623 35.4760742,6.13155114 C35.6452637,6.6104736 36.1707357,6.86112465 36.6492106,6.69148769 L36.6492106,6.69148769 Z" id="Path" fill="#515151"></path>
    <path d="M54.0833333,53.1666667 L0.916666667,53.1666667 C0.410441052,53.1666667 0,53.5771077 0,54.0833333 C0,54.5895589 0.410441052,55 0.916666667,55 L54.0833333,55 C54.5895589,55 55,54.5895589 55,54.0833333 C55,53.5771077 54.5895589,53.1666667 54.0833333,53.1666667 Z" id="Path" fill="#515151"></path>
    <path d="M26.5833333,26.5833333 C26.5833333,26.0771077 26.1728923,25.6666667 25.6666667,25.6666667 L13.75,25.6666667 C13.2437744,25.6666667 12.8333333,26.0771077 12.8333333,26.5833333 C12.8333333,27.0895589 13.2437744,27.5 13.75,27.5 L25.6666667,27.5 C26.1728923,27.5 26.5833333,27.0895589 26.5833333,26.5833333 Z" id="Path" fill="#515151"></path>
    <path d="M21.0833333,29.3333333 L18.3333333,29.3333333 C17.8271077,29.3333333 17.4166667,29.7437744 17.4166667,30.25 C17.4166667,30.7562256 17.8271077,31.1666667 18.3333333,31.1666667 L21.0833333,31.1666667 C21.5895589,31.1666667 22,30.7562256 22,30.25 C22,29.7437744 21.5895589,29.3333333 21.0833333,29.3333333 Z" id="Path" fill="#515151"></path>
    <path d="M54.0833333,45.8333333 C54.5895589,45.8333333 55,45.4228923 55,44.9166667 C55,44.4104411 54.5895589,44 54.0833333,44 L49.5,44 L49.5,40.3333333 L54.0833333,40.3333333 C54.5895589,40.3333333 55,39.9228923 55,39.4166667 C55,38.9104411 54.5895589,38.5 54.0833333,38.5 L41.25,38.5 C39.7313233,38.5 38.5,39.7313233 38.5,41.25 L38.5,43.0833333 C38.5031332,43.3961996 38.5599773,43.7063802 38.6687418,44 L36.6666667,44 C35.1479899,44 33.9166667,45.2313233 33.9166667,46.75 L33.9166667,48.5833333 C33.9197998,48.8961996 33.9766439,49.2063802 34.0854085,49.5 L31.1666667,49.5 L31.1666667,48.5833333 C31.1666667,47.0646566 29.9353434,45.8333333 28.4166667,45.8333333 L24.75,45.8333333 L24.75,42.1666667 L32.0833333,42.1666667 C34.1082357,42.1666667 35.75,40.5249023 35.75,38.5 L35.75,32.7587483 C39.4712727,33.7412109 43.3142904,31.6594645 44.5241293,28.0057779 C47.7816976,29.1905517 49.9525147,32.2838542 49.9583333,35.75 C49.9583333,36.2562256 50.3687744,36.6666667 50.875,36.6666667 C51.3812256,36.6666667 51.7916667,36.2562256 51.7916667,35.75 C51.7831624,31.1129557 48.6160075,27.0779215 44.1136882,25.968343 L44.0778809,25.968343 C43.7882894,25.8976237 43.4942221,25.8416748 43.1952311,25.7969157 C44.6839193,24.7925212 45.8789877,23.4112549 46.6582438,21.7936605 C49.1902669,21.3509929 52.25,20.0189616 52.25,14.6666667 C52.25,6.56660973 45.6833903,0 37.5833333,0 C29.4832764,0 22.9166667,6.56660973 22.9166667,14.6666667 C22.9166667,17.4296468 23.7353108,19.1152751 24.8735352,20.1666667 L6.41666667,20.1666667 C4.39176432,20.1666667 2.75,21.808431 2.75,23.8333333 L2.75,38.5 C2.75,40.5249023 4.39176432,42.1666667 6.41666667,42.1666667 L13.75,42.1666667 L13.75,45.8333333 L10.0833333,45.8333333 C8.5646566,45.8333333 7.33333333,47.0646566 7.33333333,48.5833333 L7.33333333,49.5 L0.916666667,49.5 C0.410441052,49.5 0,49.9104411 0,50.4166667 C0,50.9228923 0.410441052,51.3333333 0.916666667,51.3333333 L54.0833333,51.3333333 C54.5895589,51.3333333 55,50.9228923 55,50.4166667 C55,49.9104411 54.5895589,49.5 54.0833333,49.5 L50.4166667,49.5 L50.4166667,45.8333333 L54.0833333,45.8333333 Z M40.3333333,43.0833333 L40.3333333,41.25 C40.3333333,40.7437744 40.7437744,40.3333333 41.25,40.3333333 L47.6666667,40.3333333 L47.6666667,44 L41.25,44 C40.7437744,44 40.3333333,43.5895589 40.3333333,43.0833333 Z M37.5833333,31.1666681 C36.9584961,31.1671142 36.3381347,31.0596924 35.75,30.8493246 L35.75,27.5 L41.7083333,27.5 C42.0453694,27.5008951 42.3824055,27.5237223 42.7167562,27.5680339 L42.7413737,27.5680339 C41.945109,29.7290039 39.8866373,31.1653239 37.5833333,31.1666681 L37.5833333,31.1666681 Z M37.5833333,1.83333333 C44.667806,1.84094235 50.4090576,7.58219401 50.4166667,14.6666667 C50.4166667,17.875 49.2882894,19.1667481 47.3842366,19.745931 C47.5690919,18.9832357 47.6635335,18.2012939 47.6666667,17.4166667 L47.6666667,11.9166667 C47.6666667,11.4104411 47.2562256,11 46.75,11 L35.75,11 C35.2437744,11 34.8333333,11.4104411 34.8333333,11.9166667 C34.8333333,12.4228923 35.2437744,12.8333333 35.75,12.8333333 L45.8333333,12.8333333 L45.8333333,17.4166667 C45.8619792,19.9352621 44.7250977,22.3258464 42.7539063,23.8937582 C40.7827148,25.46167 38.1974284,26.0310059 35.75,25.4366049 L35.75,23.8333333 C35.75,21.808431 34.1082357,20.1666667 32.0833333,20.1666667 L29.8171793,20.1666667 C29.498942,19.2844645 29.3355713,18.3543701 29.3333333,17.4166667 L29.3333333,12.8333333 L31.1666667,12.8333333 C31.6728923,12.8333333 32.0833333,12.4228923 32.0833333,11.9166667 C32.0833333,11.4104411 31.6728923,11 31.1666667,11 L28.4166667,11 C27.9104411,11 27.5,11.4104411 27.5,11.9166667 L27.5,17.4166667 C27.5026856,18.2012939 27.5980225,18.9832357 27.7833252,19.745931 C25.8792725,19.1667481 24.75,17.875 24.75,14.6666667 C24.757609,7.58219401 30.4988607,1.84094235 37.5833333,1.83333333 L37.5833333,1.83333333 Z M15.5833333,38.5 C15.5833333,36.9813233 16.8146566,35.75 18.3333333,35.75 L20.1666667,35.75 C20.6728923,35.75 21.0833333,35.3395589 21.0833333,34.8333333 C21.0833333,34.3271077 20.6728923,33.9166667 20.1666667,33.9166667 L18.3333333,33.9166667 C15.8031006,33.9197998 13.7531332,35.9697673 13.75,38.5 L13.75,40.3333333 L6.41666667,40.3333333 C5.40421544,40.3333333 4.58333333,39.5124512 4.58333333,38.5 L4.58333333,23.8333333 C4.58333333,22.8208821 5.40421544,22 6.41666667,22 L32.0833333,22 C33.0957846,22 33.9166667,22.8208821 33.9166667,23.8333333 L33.9166667,38.5 C33.9166667,39.5124512 33.0957846,40.3333333 32.0833333,40.3333333 L24.75,40.3333333 L24.75,38.5 C24.75,37.9937744 24.3395589,37.5833333 23.8333333,37.5833333 C23.3271077,37.5833333 22.9166667,37.9937744 22.9166667,38.5 L22.9166667,45.8333333 L15.5833333,45.8333333 L15.5833333,38.5 Z M9.16666667,48.5833333 C9.16666667,48.0771077 9.57710772,47.6666667 10.0833333,47.6666667 L28.4166667,47.6666667 C28.9228923,47.6666667 29.3333333,48.0771077 29.3333333,48.5833333 L29.3333333,49.5 L9.16666667,49.5 L9.16666667,48.5833333 Z M36.6666667,49.5 C36.1604411,49.5 35.75,49.0895589 35.75,48.5833333 L35.75,46.75 C35.75,46.2437744 36.1604411,45.8333333 36.6666667,45.8333333 L41.25,45.8333333 L41.25,49.5 L36.6666667,49.5 Z M48.5833333,49.5 L43.0833333,49.5 L43.0833333,45.8333333 L48.5833333,45.8333333 L48.5833333,49.5 Z" id="Shape" fill="#515151"></path>
  </g>
</svg>
