<?xml version="1.0" encoding="UTF-8"?>
<svg width="64px" height="64px" viewBox="0 0 64 64" version="1.1"
  xmlns="http://www.w3.org/2000/svg"
  xmlns:xlink="http://www.w3.org/1999/xlink">
  <g id="connection-(1)" transform="translate(3.000000, 3.000000)" fill="#515151" fill-rule="nonzero">
    <path d="M45.7290317,31.4764139 L39.3487137,23.3546689 C41.6142869,21.0320641 42.9824282,17.9810038 43.209735,14.7444201 L53.0893494,14.7444201 L53.0893494,15.8256157 C50.802397,16.2955673 49.160136,18.3072054 49.1575558,20.6418508 C49.1581701,23.3560204 51.3589916,25.5558849 54.0732807,25.5553935 C56.7875699,25.554902 58.9875313,23.3540546 58.9870398,20.639885 C58.9865483,18.304871 57.3431814,16.2926185 55.0552462,15.8256157 L55.0552462,13.761515 C55.0552462,13.2187056 54.615131,12.7786099 54.0722978,12.7786099 L43.209735,12.7786099 C43.0175686,10.0553484 42.0144697,7.45187847 40.3296962,5.30361647 L41.7009092,3.93246384 L53.2702119,3.93246384 C53.8130451,5.46788449 55.4979416,6.27251519 57.033307,5.72958298 C58.5687952,5.18677363 59.3734614,3.50195139 58.8305052,1.9666536 C58.2875491,0.431355811 56.6028984,-0.373397753 55.067533,0.169411598 C54.2277265,0.466248943 53.5671852,1.12688404 53.2703347,1.96653074 L41.2940914,1.96653074 C41.0333644,1.96653074 40.7834497,2.07022723 40.5991469,2.25452194 L39.0116852,3.8419137 C33.5491952,-1.41859448 24.8562453,-1.25506364 19.5953826,4.20718582 C17.3594207,6.5288077 16.0114298,9.56303579 15.7875633,12.778487 L7.53079676,12.778487 L4.31741557,5.55130856 C5.75387179,4.79533166 6.30555158,3.01823921 5.54966426,1.58184625 C4.79377694,0.145453285 3.01648336,-0.406079348 1.58002714,0.349774686 C0.143693783,1.10562872 -0.407986007,2.88272117 0.347901314,4.31911414 C0.745135337,5.07398527 1.45089229,5.61912902 2.28172943,5.81263846 L5.99235964,14.1614345 C6.1503686,14.5161404 6.50250986,14.744543 6.89077448,14.7442973 L15.7874405,14.7442973 C16.0137643,17.9436534 17.3554889,20.962155 19.5786725,23.2739479 L11.280622,31.5716328 C5.91507532,30.7677393 0.913710987,34.4654284 0.109782063,39.8307388 C-0.694146861,45.1960493 3.00370503,50.1971933 8.36925175,51.0010869 C8.5311925,51.0254138 8.69374759,51.0455633 8.85667129,51.0616584 L8.85667129,56.0263121 C8.85667129,56.5691215 9.29678643,57.0092173 9.83961969,57.0092173 L18.8670178,57.0092173 C19.4098511,58.5446379 21.0947475,59.3492686 22.6301129,58.8063364 C24.1654783,58.2634042 24.9702673,56.5787048 24.4273112,55.043407 C23.8843551,53.5081092 22.1995815,52.7033557 20.6642161,53.2462879 C19.8244096,53.5431252 19.1638682,54.2037603 18.8670178,55.043407 L10.8225681,55.043407 L10.8225681,51.0616584 C16.2211664,50.5235178 20.161438,45.7109687 19.6232737,40.3124852 C19.2590914,36.6595183 16.8882198,33.5143448 13.4765288,32.1584272 L21.0452315,24.5900578 C25.9742262,28.4708129 32.9121218,28.4987029 37.8723252,24.6578783 L43.3257229,31.5991542 C35.7957238,32.6495112 30.5429704,39.6049164 31.5933736,47.134461 C32.6437769,54.6641285 39.5994884,59.9166506 47.1293646,58.8662936 C54.6593637,57.8159366 59.9121171,50.8605314 58.8617139,43.3309868 C57.9392168,36.717264 52.402637,31.7195601 45.7290317,31.4764139 Z M57.021143,20.6418508 C57.021143,22.2704017 55.7009204,23.5905662 54.0722978,23.5905662 C52.4436751,23.5905662 51.1234526,22.2704017 51.1234526,20.6418508 C51.1234526,19.0132999 52.4436751,17.6931355 54.0722978,17.6931355 C55.7009204,17.6931355 57.021143,19.0132999 57.021143,20.6418508 Z M56.0381946,1.9666536 C56.5810278,1.9666536 57.021143,2.40674937 57.021143,2.94955872 C57.021143,3.49236807 56.5810278,3.93246384 56.0381946,3.93246384 C55.4953613,3.93246384 55.0552462,3.49236807 55.0552462,2.94955872 C55.0552462,2.40674937 55.4953613,1.9666536 56.0381946,1.9666536 Z M2.95898087,3.93246384 C2.41614762,3.93246384 1.97603247,3.49236807 1.97603247,2.94955872 C1.97603247,2.40674937 2.41614762,1.9666536 2.95898087,1.9666536 C3.50181413,1.9666536 3.94192928,2.40674937 3.94192928,2.94955872 C3.94192928,3.49236807 3.50181413,3.93246384 2.95898087,3.93246384 Z M21.6350005,55.0435299 C22.1778338,55.0435299 22.6179489,55.4836257 22.6179489,56.026435 C22.6179489,56.5692444 22.1778338,57.0093401 21.6350005,57.0093401 C21.0921673,57.0093401 20.6520521,56.5692444 20.6520521,56.026435 C20.6520521,55.4836257 21.0921673,55.0435299 21.6350005,55.0435299 Z M13.7714133,48.0825959 C11.3421792,49.5011737 8.33706019,49.5011737 5.90782608,48.0825959 L5.90782608,46.1973838 C5.90782608,44.0260236 7.6681638,42.2657634 9.83961969,42.2657634 C12.0110756,42.2657634 13.7714133,44.0260236 13.7714133,46.1973838 L13.7714133,48.0825959 Z M7.87372288,38.3341429 C7.87372288,37.2484013 8.75383031,36.3683327 9.83961969,36.3683327 C10.9254091,36.3683327 11.8055165,37.2484013 11.8055165,38.3341429 C11.8055165,39.4198845 10.9254091,40.2999531 9.83961969,40.2999531 C8.75383031,40.2999531 7.87372288,39.4197616 7.87372288,38.3341429 Z M15.7373101,36.064615 C17.0080166,37.505431 17.7073844,39.3616473 17.7032255,41.2828583 C17.7028383,43.1928886 17.0035934,45.0366958 15.7373101,46.4666998 L15.7373101,46.1973838 C15.7360814,44.0485075 14.5660042,42.0702881 12.6832894,41.0341833 C14.1826543,39.4635009 14.1246604,36.9747851 12.5539088,35.4754862 C10.9831573,33.9763102 8.49433193,34.0341788 6.99496701,35.6048611 C5.54474951,37.1240638 5.54474951,39.5148577 6.99496701,41.0340604 C5.11262082,42.070411 3.94303509,44.0485075 3.94192928,46.197261 L3.94192928,46.4666998 C1.06938544,43.2094751 1.38122582,38.2405212 4.63834822,35.3681039 C7.89559349,32.4956865 12.8647663,32.8075132 15.7373101,36.064615 Z M36.3792265,23.3192844 C32.2757856,26.298224 26.7213899,26.298224 22.6179489,23.3192844 L22.6179489,20.9367223 C22.6179489,19.1453778 24.0702552,17.6931355 25.8616786,17.6931355 L28.0438241,17.6931355 L26.617566,21.2591152 C26.4714753,21.6243873 26.5573604,22.0417534 26.8357805,22.3196698 L28.8016773,24.2854801 C29.1855187,24.6691817 29.807725,24.6691817 30.1915663,24.2854801 L32.1574632,22.3196698 C32.4358833,22.0416306 32.5217684,21.6243873 32.3756777,21.2591152 L30.9504025,17.6931355 L33.1354968,17.6931355 C34.9269203,17.6931355 36.3792265,19.1453778 36.3792265,20.9367223 L36.3792265,23.3192844 L36.3792265,23.3192844 Z M29.6392722,7.35788817 C29.6024116,7.41931974 29.5724317,7.4844372 29.5498239,7.55238052 C29.052452,9.04344758 26.3671599,9.60861802 24.6381536,9.77276317 C24.9018295,6.4788024 26.4519392,4.91524609 29.4987106,4.91524609 C32.2883182,4.91524609 33.8236836,6.23430475 34.2630615,8.98643908 L30.9878774,7.02062885 C30.5222056,6.74148379 29.9184296,6.89248259 29.6392722,7.35788817 Z M30.8540736,9.23425403 L34.3671312,11.3425855 C33.9729688,13.7487372 31.0074135,15.7273252 29.4985877,15.7273252 C27.3062442,15.3539442 25.4825063,13.8337585 24.7204755,11.7445937 C26.4032832,11.6060041 29.4415767,11.0958763 30.8540736,9.23425403 Z M30.3105031,21.3878758 L29.4985877,22.2007383 L28.6866723,21.3878758 L29.4985877,19.3562109 L30.3105031,21.3878758 Z M33.7871916,15.7725389 C35.3205911,14.5659 36.2640987,12.760549 36.3792265,10.8127997 C36.3792265,4.31383102 32.637142,2.94955872 29.4985877,2.94955872 C26.3600335,2.94955872 22.6179489,4.31383102 22.6179489,10.8127997 C22.7322167,12.7616548 23.6758471,14.5682344 25.2099838,15.7754876 C22.6044334,16.096529 20.6482432,18.3115056 20.6520521,20.9367223 L20.6520521,21.5343287 C16.3431749,16.6487988 16.8108126,9.19530642 21.6966805,4.88661898 C26.5825484,0.577931537 34.0362462,1.04554865 38.3451233,5.93107853 C42.2769169,10.3891675 42.2769169,17.0761168 38.3451233,21.5343287 L38.3451233,20.9365995 C38.3504067,18.3103999 36.3938479,16.0935803 33.7871916,15.7725389 Z M52.106401,54.7722481 C48.00296,57.7511878 42.4485643,57.7511878 38.3451233,54.7722481 L38.3451233,52.3896861 C38.3451233,50.5983415 39.7974296,49.1460992 41.5888531,49.1460992 L43.7709985,49.1460992 L42.3447404,52.7120789 C42.1986497,53.0773511 42.2845348,53.4945943 42.5629549,53.7726336 L44.5288517,55.7384438 C44.9126931,56.1221454 45.5348994,56.1221454 45.9187408,55.7384438 L47.8846376,53.7726336 C48.1630577,53.4945943 48.2489428,53.0773511 48.1028521,52.7120789 L46.6775769,49.1460992 L48.8626712,49.1460992 C50.6540947,49.1460992 52.106401,50.5983415 52.106401,52.3896861 L52.106401,54.7722481 L52.106401,54.7722481 Z M46.581248,40.6872178 L46.581248,40.6862349 L50.0943056,42.7945663 C49.7001433,45.201701 46.7345879,47.180289 45.2257622,47.180289 C43.0334186,46.8069079 41.2096807,45.2867222 40.44765,43.1975574 C42.1304576,43.0589678 45.1687511,42.5487172 46.581248,40.6872178 Z M40.3650823,41.2258498 L40.3650823,41.2258498 C40.6285125,37.9321347 42.1786221,36.3683327 45.2257622,36.3683327 C48.0153697,36.3683327 49.5507351,37.6873913 49.9901131,40.4395257 L46.714929,38.4737154 C46.24938,38.1944475 45.645604,38.3454463 45.3663238,38.8109748 C45.3294632,38.8724063 45.2994833,38.9375238 45.2768755,39.0054671 C44.7795036,40.4965342 42.0940885,41.0617046 40.3650823,41.2258498 Z M46.0376775,52.8408395 L45.2257622,53.6537021 L44.4138468,52.8408395 L45.2257622,50.8091746 L46.0376775,52.8408395 Z M54.0722978,52.9901182 L54.0722978,52.3895632 C54.0775811,49.7632407 52.1210223,47.546544 49.514366,47.2253797 C51.0477655,46.0187408 51.9912731,44.2133899 52.106401,42.2656405 C52.106401,35.7666719 48.3643164,34.4023996 45.2257622,34.4023996 C42.0872079,34.4023996 38.3451233,35.7666719 38.3451233,42.2656405 C38.4593911,44.2144956 39.4030216,46.0210752 40.9371583,47.2283284 C38.3316078,47.5493698 36.3754176,49.7643465 36.3792265,52.3895632 L36.3792265,52.9871695 C32.0804246,48.0978309 32.5593662,40.6493759 37.4489201,36.3507632 C42.3384741,32.0521506 49.7872571,32.5310711 54.086059,37.4204097 C55.9802006,39.574692 57.0237232,42.3457473 57.0211477,45.214233 C57.0205286,48.0794014 55.9717227,50.8451735 54.0722978,52.9901182 Z" id="Shape"></path>
  </g>
</svg>
