<?xml version="1.0" encoding="UTF-8"?>
<svg width="64px" height="64px" viewBox="0 0 64 64" version="1.1"
  xmlns="http://www.w3.org/2000/svg"
  xmlns:xlink="http://www.w3.org/1999/xlink">
  <g id="note" transform="translate(3.000000, 3.000000)" fill="#515151" fill-rule="nonzero">
    <path d="M56.8197068,0 L1.18029317,0 C0.528574626,0 0,0.528574626 0,1.18029317 L0,56.8197068 C0,57.4714254 0.528574626,58 1.18029317,58 L48.4748374,58 C49.1265559,58 49.6551305,57.4714254 49.6551305,56.8197068 C49.6551305,56.1679883 49.1265559,55.6394137 48.4748374,55.6394137 L2.36058635,55.6394137 L2.36058635,2.36058635 L55.6394137,2.36058635 L55.6394137,56.8197068 C55.6394137,57.4714254 56.1679883,58 56.8197068,58 C57.4714254,58 58,57.4714254 58,56.8197068 L58,1.18029317 C58,0.528574626 57.4714254,0 56.8197068,0 Z" id="Path"></path>
    <path d="M13.5,12 C11.0185435,12 9,14.0185435 9,16.5 C9,18.9814565 11.0185435,21 13.5,21 C15.9814565,21 18,18.9814565 18,16.5 C18,14.0185435 15.9814565,12 13.5,12 Z M13.5,18.6521739 C12.3133696,18.6521739 11.3478261,17.6866304 11.3478261,16.5 C11.3478261,15.3133696 12.3133696,14.3478261 13.5,14.3478261 C14.6866304,14.3478261 15.6521739,15.3133696 15.6521739,16.5 C15.6521739,17.6866304 14.6868261,18.6521739 13.5,18.6521739 Z" id="Shape"></path>
    <path d="M48.8157895,16 L21.1842105,16 C20.5303289,16 20,16.4478333 20,17 C20,17.5521667 20.5303289,18 21.1842105,18 L48.8157895,18 C49.4696711,18 50,17.5521667 50,17 C50,16.4478333 49.4698684,16 48.8157895,16 Z" id="Path"></path>
    <path d="M13.5,24 C12.8518043,24 12.326087,24.5257174 12.326087,25.173913 C12.326087,25.8221087 12.8518043,26.3478261 13.5,26.3478261 C14.6866304,26.3478261 15.6521739,27.3133696 15.6521739,28.5 C15.6521739,29.6866304 14.6866304,30.6521739 13.5,30.6521739 C12.3133696,30.6521739 11.3478261,29.6866304 11.3478261,28.5 C11.3478261,27.8518043 10.8221087,27.326087 10.173913,27.326087 C9.52571739,27.326087 9,27.8518043 9,28.5 C9,30.9814565 11.0185435,33 13.5,33 C15.9814565,33 18,30.9814565 18,28.5 C18,26.0185435 15.9814565,24 13.5,24 Z" id="Path"></path>
    <path d="M48.8157895,27 L21.1842105,27 C20.5303289,27 20,27.4478333 20,28 C20,28.5521667 20.5303289,29 21.1842105,29 L48.8157895,29 C49.4696711,29 50,28.5521667 50,28 C50,27.4478333 49.4698684,27 48.8157895,27 Z" id="Path"></path>
    <path d="M13.5,37 C11.0185435,37 9,39.0185435 9,41.5 C9,43.9814565 11.0185435,46 13.5,46 C15.9814565,46 18,43.9814565 18,41.5 C18,39.0185435 15.9814565,37 13.5,37 Z M13.5,43.6521739 C12.3133696,43.6521739 11.3478261,42.6866304 11.3478261,41.5 C11.3478261,40.3133696 12.3133696,39.3478261 13.5,39.3478261 C14.6866304,39.3478261 15.6521739,40.3133696 15.6521739,41.5 C15.6521739,42.6866304 14.6868261,43.6521739 13.5,43.6521739 Z" id="Shape"></path>
    <path d="M48.8157895,40 L21.1842105,40 C20.5303289,40 20,40.4478333 20,41 C20,41.5521667 20.5303289,42 21.1842105,42 L48.8157895,42 C49.4696711,42 50,41.5521667 50,41 C50,40.4478333 49.4698684,40 48.8157895,40 Z" id="Path"></path>
  </g>
</svg>
