<?xml version="1.0" encoding="UTF-8"?>
<svg width="64px" height="64px" viewBox="0 0 64 64" version="1.1"
  xmlns="http://www.w3.org/2000/svg"
  xmlns:xlink="http://www.w3.org/1999/xlink">
  <g id="computer" transform="translate(5.000000, 5.000000)" fill="#515151" fill-rule="nonzero">
    <polygon id="Path" points="5.32258065 17.7419355 8.87096774 17.7419355 8.87096774 19.516129 5.32258065 19.516129"></polygon>
    <path d="M52.3387097,14.1935484 C53.805798,14.1935484 55,12.9993464 55,11.5322581 L55,2.66129032 C55,1.19420203 53.805798,0 52.3387097,0 L39.9193548,0 C38.4522665,0 37.2580645,1.19420203 37.2580645,2.66129032 L37.2580645,11.5322581 C37.2580645,12.9993464 38.4522665,14.1935484 39.9193548,14.1935484 L42.5806452,14.1935484 L42.5806452,15.9677419 L40.8064516,15.9677419 L40.8064516,17.7419355 L45.2419355,17.7419355 L45.2419355,26.6129032 L41.5809287,26.6129032 C40.8731571,25.9220246 40.0016539,25.3931452 39.0261939,25.1020665 C39.0305255,25.0124039 39.0322581,24.9257733 39.0322581,24.8387097 C39.0322581,20.925608 35.8485855,17.7419355 31.9354839,17.7419355 C29.5076629,17.7419355 27.2509372,19.0050088 25.9584094,21.0252331 C25.0479225,20.6163369 24.0633662,20.4032258 23.0645161,20.4032258 C20.1203771,20.4032258 17.4694824,22.2588521 16.4325148,24.9807838 C15.7585291,25.1254568 15.1304578,25.3844821 14.5599956,25.7258065 L7.98387097,25.7258065 L7.98387097,23.0645161 L11.5322581,23.0645161 C12.9993464,23.0645161 14.1935484,21.8703141 14.1935484,20.4032258 L14.1935484,2.66129032 C14.1935484,1.19420203 12.9993464,0 11.5322581,0 L2.66129032,0 C1.19420203,0 0,1.19420203 0,2.66129032 L0,20.4032258 C0,21.8703141 1.19420203,23.0645161 2.66129032,23.0645161 L6.20967742,23.0645161 L6.20967742,27.5 L12.6731823,27.5 C12.2959063,28.0384089 12.0030951,28.6326944 11.8107753,29.2741935 L7.98387097,29.2741935 L7.98387097,39.0322581 L4.43548387,39.0322581 C2.96839557,39.0322581 1.77419355,40.2264601 1.77419355,41.6935484 L1.77419355,49.6774194 L0,49.6774194 L0,52.3387097 C0,53.805798 1.19420203,55 2.66129032,55 L16.8548387,55 C18.321927,55 19.516129,53.805798 19.516129,52.3387097 L19.516129,49.6774194 L17.7419355,49.6774194 L17.7419355,41.6935484 C17.7419355,40.2264601 16.5477335,39.0322581 15.0806452,39.0322581 L9.75806452,39.0322581 L9.75806452,31.0483871 L11.5322581,31.0483871 C11.5322581,34.4715931 14.3187295,37.2580645 17.7419355,37.2580645 L37.2580645,37.2580645 C40.3797962,37.2580645 42.9639853,34.939398 43.3967049,31.9354839 L47.016129,31.9354839 L47.016129,39.0322581 L40.8064516,39.0322581 L40.8064516,55 L55,55 L55,39.0322581 L48.7903226,39.0322581 L48.7903226,30.1612903 L43.3932397,30.1612903 C43.3009782,29.5366842 43.1095246,28.9423985 42.841403,28.3870968 L47.016129,28.3870968 L47.016129,17.7419355 L51.4516129,17.7419355 L51.4516129,15.9677419 L49.6774194,15.9677419 L49.6774194,14.1935484 L52.3387097,14.1935484 Z M12.4193548,14.1935484 L1.77419355,14.1935484 L1.77419355,5.32258065 L12.4193548,5.32258065 L12.4193548,14.1935484 Z M2.66129032,1.77419355 L11.5322581,1.77419355 C12.0217206,1.77419355 12.4193548,2.1718278 12.4193548,2.66129032 L12.4193548,3.5483871 L1.77419355,3.5483871 L1.77419355,2.66129032 C1.77419355,2.1718278 2.1718278,1.77419355 2.66129032,1.77419355 Z M1.77419355,20.4032258 L1.77419355,15.9677419 L12.4193548,15.9677419 L12.4193548,20.4032258 C12.4193548,20.8926883 12.0217206,21.2903226 11.5322581,21.2903226 L2.66129032,21.2903226 C2.1718278,21.2903226 1.77419355,20.8926883 1.77419355,20.4032258 Z M17.7419355,52.3387097 C17.7419355,52.8281722 17.3443012,53.2258065 16.8548387,53.2258065 L2.66129032,53.2258065 C2.1718278,53.2258065 1.77419355,52.8281722 1.77419355,52.3387097 L1.77419355,51.4516129 L17.7419355,51.4516129 L17.7419355,52.3387097 Z M15.9677419,41.6935484 L15.9677419,49.6774194 L3.5483871,49.6774194 L3.5483871,41.6935484 C3.5483871,41.2040859 3.94602135,40.8064516 4.43548387,40.8064516 L15.0806452,40.8064516 C15.5701077,40.8064516 15.9677419,41.2040859 15.9677419,41.6935484 Z M42.5806452,53.2258065 L42.5806452,47.9032258 L53.2258065,47.9032258 L53.2258065,53.2258065 L42.5806452,53.2258065 Z M53.2258065,46.1290323 L42.5806452,46.1290323 L42.5806452,40.8064516 L53.2258065,40.8064516 L53.2258065,46.1290323 Z M37.2580645,35.483871 L17.7419355,35.483871 C15.2963552,35.483871 13.3064516,33.4939674 13.3064516,31.0483871 C13.3064516,28.8059555 14.9849184,26.9143775 17.2095908,26.6484217 L17.7917481,26.578251 L17.955913,26.0151525 C18.6121393,23.7553947 20.7137963,22.1774194 23.0645161,22.1774194 C24.0438744,22.1774194 25.0054734,22.4524714 25.8483887,22.9713883 L26.6952023,23.4937705 L27.1175261,22.5915134 C27.990762,20.7224593 29.8819068,19.516129 31.9354839,19.516129 C34.8709598,19.516129 37.2580645,21.9032337 37.2580645,24.8387097 C37.2580645,25.0834409 37.2359737,25.3441989 37.1878938,25.659101 L37.0540496,26.5366683 L37.9311838,26.6696463 C40.0761561,26.9971097 41.6935484,28.8795914 41.6935484,31.0483871 C41.6935484,33.4939674 39.7036448,35.483871 37.2580645,35.483871 L37.2580645,35.483871 Z M39.9193548,1.77419355 L52.3387097,1.77419355 C52.8281722,1.77419355 53.2258065,2.1718278 53.2258065,2.66129032 L53.2258065,8.87096774 L39.0322581,8.87096774 L39.0322581,2.66129032 C39.0322581,2.1718278 39.4298923,1.77419355 39.9193548,1.77419355 Z M39.0322581,11.5322581 L39.0322581,10.6451613 L53.2258065,10.6451613 L53.2258065,11.5322581 C53.2258065,12.0217206 52.8281722,12.4193548 52.3387097,12.4193548 L39.9193548,12.4193548 C39.4298923,12.4193548 39.0322581,12.0217206 39.0322581,11.5322581 Z M47.9032258,15.9677419 L44.3548387,15.9677419 L44.3548387,14.1935484 L47.9032258,14.1935484 L47.9032258,15.9677419 Z" id="Shape"></path>
    <polygon id="Path" points="44.3548387 42.5806452 46.1290323 42.5806452 46.1290323 44.3548387 44.3548387 44.3548387"></polygon>
    <polygon id="Path" points="49.6774194 49.6774194 51.4516129 49.6774194 51.4516129 51.4516129 49.6774194 51.4516129"></polygon>
    <polygon id="Path" points="47.9032258 42.5806452 51.4516129 42.5806452 51.4516129 44.3548387 47.9032258 44.3548387"></polygon>
    <polygon id="Path" points="44.3548387 49.6774194 47.9032258 49.6774194 47.9032258 51.4516129 44.3548387 51.4516129"></polygon>
  </g>
</svg>
