<?xml version="1.0" encoding="UTF-8"?>
<svg width="64px" height="64px" viewBox="0 0 64 64" version="1.1"
  xmlns="http://www.w3.org/2000/svg"
  xmlns:xlink="http://www.w3.org/1999/xlink">
  <g id="cashless" transform="translate(0.000000, 1.000000)" fill="#515151" fill-rule="nonzero">
    <path d="M7.60714286,6.53846154 L9.67857143,6.53846154 L9.67857143,4.5 L7.60714286,4.5 C5.89407143,4.5 4.5,5.87188462 4.5,7.55769231 L4.5,54.4423077 C4.5,56.1281154 5.89407143,57.5 7.60714286,57.5 L33.5,57.5 L33.5,55.4615385 L7.60714286,55.4615385 C7.03542857,55.4615385 6.57142857,55.0039038 6.57142857,54.4423077 L6.57142857,7.55769231 C6.57142857,6.99609615 7.03542857,6.53846154 7.60714286,6.53846154 Z" id="Path"></path>
    <polygon id="Path" points="42.5 14.5 45.5 14.5 45.5 17.5 42.5 17.5"></polygon>
    <polygon id="Path" points="47.5 12.5 50.5 12.5 50.5 15.5 47.5 15.5"></polygon>
    <path d="M20.5,26.5 L20.5,27.5 L19.5,27.5 C18.947,27.5 18.5,27.948 18.5,28.5 L18.5,31.5 C18.5,32.052 18.947,32.5 19.5,32.5 L22.5,32.5 L22.5,33.5 L18.5,33.5 L18.5,34.5 C18.5,35.052 18.947,35.5 19.5,35.5 L20.5,35.5 L20.5,36.5 L22.5,36.5 L22.5,35.5 L23.5,35.5 C24.053,35.5 24.5,35.052 24.5,34.5 L24.5,31.5 C24.5,30.948 24.053,30.5 23.5,30.5 L20.5,30.5 L20.5,29.5 L24.5,29.5 L24.5,28.5 C24.5,27.948 24.053,27.5 23.5,27.5 L22.5,27.5 L22.5,26.5 L20.5,26.5 Z" id="Path"></path>
    <path d="M54.3025667,5.243 C52.9861,2.3786 50.1020667,0.5 46.9111333,0.5 C44.1976,0.5 41.6773,1.8702 40.1758667,4.0774 C39.7067333,3.7364 39.1973,3.46876667 38.6723667,3.2373 C37.514,1.523 35.6354,0.5 33.5666667,0.5 L29.4333333,0.5 L28.4,0.5 L11.8666667,0.5 L10.8333333,0.5 L6.7,0.5 C3.2807,0.5 0.5,3.2807 0.5,6.7 L0.5,56.3 C0.5,59.7193 3.2807,62.5 6.7,62.5 L33.5666667,62.5 C36.9859667,62.5 39.7666667,59.7193 39.7666667,56.3 L39.7666667,32.5333333 L48.0333333,32.5333333 C48.6047667,32.5333333 49.0666667,32.0704 49.0666667,31.5 L49.0666667,16 L47,16 L47,30.4666667 L32.5333333,30.4666667 L32.5333333,32.5333333 L37.7,32.5333333 L37.7,56.3 C37.7,58.5795333 35.8462,60.4333333 33.5666667,60.4333333 L6.7,60.4333333 C4.42046667,60.4333333 2.56666667,58.5795333 2.56666667,56.3 L2.56666667,6.7 C2.56666667,4.42046667 4.42046667,2.56666667 6.7,2.56666667 L10.8333333,2.56666667 L11.8666667,2.56666667 C12.4370667,2.56666667 12.9,3.03063333 12.9,3.6 C12.9,5.30913333 14.2908667,6.7 16,6.7 L24.2666667,6.7 C25.9758,6.7 27.3666667,5.30913333 27.3666667,3.6 C27.3666667,3.03063333 27.8296,2.56666667 28.4,2.56666667 L29.4333333,2.56666667 L33.5666667,2.56666667 C33.7909,2.56666667 34.0099667,2.59043333 34.2259333,2.62556667 C30.2930667,3.19803333 27.2602333,6.58323333 27.2602333,10.6731667 L27.2602333,12.0092667 L26.2620333,12.0092667 C24.6572667,12.0092667 23.2405667,12.7698 22.3054,13.9333333 L17.0333333,13.9333333 L17.0333333,16 L21.2948,16 C21.2152333,16.3565 21.1666667,16.7243667 21.1666667,17.1046333 C21.1666667,17.4342667 21.2038667,17.7546 21.2638,18.0666667 L14.9666667,18.0666667 L14.9666667,20.1333333 L22.1876,20.1333333 C22.6298667,20.7254333 23.1961333,21.2100667 23.8492,21.5655333 C22.9998,21.3082333 22.0997667,21.1666667 21.1666667,21.1666667 C16.0382333,21.1666667 11.8666667,25.3392667 11.8666667,30.4666667 C11.8666667,32.7937333 12.7543,34.9844 14.2629667,36.6666667 L9.8,36.6666667 C9.22856667,36.6666667 8.76666667,37.1296 8.76666667,37.7 L8.76666667,54.2333333 C8.76666667,54.8037333 9.22856667,55.2666667 9.8,55.2666667 L32.5333333,55.2666667 C33.1047667,55.2666667 33.5666667,54.8037333 33.5666667,54.2333333 L33.5666667,37.7 C33.5666667,37.1296 33.1047667,36.6666667 32.5333333,36.6666667 L28.0703667,36.6666667 C29.5790333,34.9844 30.4666667,32.7937333 30.4666667,30.4666667 C30.4666667,26.7518333 28.2718667,23.5474667 25.114,22.0584333 C25.4849667,22.1442 25.8652333,22.2 26.2620333,22.2 L37.7,22.2 L37.7,26.3333333 L32.5333333,26.3333333 L32.5333333,28.4 L43.9,28.4 C44.4714333,28.4 44.9333333,27.9370667 44.9333333,27.3666667 L44.9333333,19.1 L42.8666667,19.1 L42.8666667,26.3333333 L39.7666667,26.3333333 L39.7666667,22.2 L40.8,22.2 L40.8,20.1333333 L26.2620333,20.1333333 C24.5911333,20.1333333 23.2333333,18.7745 23.2333333,17.1046333 C23.2333333,15.4347667 24.5911333,14.0759333 26.2620333,14.0759333 L28.2935667,14.0759333 C28.865,14.0759333 29.3269,13.613 29.3269,13.0426 L29.3269,10.6731667 C29.3269,7.3231 32.0528333,4.5982 35.4018667,4.5982 C37.0366,4.5982 38.5700667,5.2399 39.7222333,6.40446667 C39.9599,6.64523333 40.3019333,6.7558 40.6357,6.69586667 C40.9694667,6.63696667 41.2546667,6.4179 41.3952,6.111 C42.3851333,3.95753333 44.551,2.56666667 46.9111333,2.56666667 C49.4748333,2.56666667 51.7750333,4.19416667 52.6327,6.61733333 C52.7784,7.02963333 53.169,7.30553333 53.6061,7.30553333 L54.0184,7.30553333 C57.5555,7.30553333 60.4323,10.1833667 60.4323,13.7194333 C60.4323,17.2555 57.5565333,20.1333333 54.0194333,20.1333333 L54.0194333,22.2 C58.6952667,22.2 62.5,18.3952667 62.5,13.7194333 C62.5,9.13763333 58.8482,5.39386667 54.3025667,5.243 Z M25.3,3.6 C25.3,4.16936667 24.8370667,4.63333333 24.2666667,4.63333333 L16,4.63333333 C15.4296,4.63333333 14.9666667,4.16936667 14.9666667,3.6 C14.9666667,3.23626667 14.8922667,2.89113333 14.7765333,2.56666667 L25.4911667,2.56666667 C25.3744,2.89113333 25.3,3.23626667 25.3,3.6 L25.3,3.6 Z M31.5,47 L26.3333333,47 C25.7629333,47 25.3,46.5360333 25.3,45.9666667 C25.3,45.3973 25.7629333,44.9333333 26.3333333,44.9333333 L31.5,44.9333333 L31.5,47 Z M31.5,42.8666667 L26.3333333,42.8666667 C24.6242,42.8666667 23.2333333,44.2575333 23.2333333,45.9666667 C23.2333333,47.6758 24.6242,49.0666667 26.3333333,49.0666667 L31.5,49.0666667 L31.5,53.2 L10.8333333,53.2 L10.8333333,38.7333333 L31.5,38.7333333 L31.5,42.8666667 Z M28.4,30.4666667 C28.4,33.0138333 27.0494333,35.3615667 24.8711667,36.6666667 L17.4632,36.6666667 C15.2839,35.3615667 13.9333333,33.0138333 13.9333333,30.4666667 C13.9333333,26.478 17.1790333,23.2333333 21.1666667,23.2333333 C25.1543,23.2333333 28.4,26.478 28.4,30.4666667 Z" id="Shape"></path>
  </g>
</svg>
