<?xml version="1.0" encoding="UTF-8"?>
<svg width="64px" height="64px" viewBox="0 0 64 64" version="1.1"
  xmlns="http://www.w3.org/2000/svg"
  xmlns:xlink="http://www.w3.org/1999/xlink">
  <g id="login" transform="translate(6.000000, 1.000000)" fill="#515151" fill-rule="nonzero">
    <path d="M46.03773,37 L41.190638,37 L6.96226999,37 C3.12322074,37 0,40.1440613 0,44.0085785 C0,47.8730957 3.12334129,51.0170357 6.96226999,51.0170357 L11.0431434,51.0170357 L10.5164585,51.4477074 C9.90996929,51.9437869 9.6370431,52.7292865 9.80412601,53.4975543 C9.97120892,54.2659435 10.5451496,54.8649279 11.3020858,55.060423 L11.5756147,55.1311702 L10.2256909,60.4255563 C10.0601751,61.0747797 10.4488298,61.7360167 11.093654,61.9026305 L15.1934539,62.961896 C15.2921847,62.9875009 15.3928443,63 15.4931423,63 C15.7072398,63 15.9195292,62.94248 16.1068646,62.8309592 C16.3820812,62.6670152 16.5813511,62.3998021 16.6607938,62.0881749 L18.0108382,56.793546 L18.2843671,56.8642932 C19.0413033,57.0597883 19.8307881,56.8132048 20.3448152,56.2206519 C20.8588423,55.6282204 20.9953054,54.8075293 20.7011623,54.0789429 L19.4646764,51.0169143 L41.190638,51.0169143 L46.03773,51.0169143 L46.03773,51.0170357 C49.8767793,51.0170357 53,47.8730957 53,44.0085785 C53,40.1440613 49.8765382,37 46.03773,37 Z M17.5932515,54.180149 C17.2411236,54.0888937 16.8748914,54.1413169 16.5618219,54.3277108 C16.248873,54.5139833 16.0268191,54.8117766 15.9366473,55.1658763 L14.6251791,60.3095456 L12.8605618,59.8535117 L14.1719095,54.7104492 C14.2624429,54.355864 14.2103651,53.9870809 14.025079,53.6719345 C13.839793,53.3569095 13.5438417,53.1333825 13.1925577,53.043098 L12.5820903,52.8852214 L14.8668827,51.0169143 L16.3666507,49.7905496 L16.8618719,51.0169143 L18.2027545,54.3375401 L17.5932515,54.180149 Z M39.9851336,48.5900325 L18.4846014,48.5900325 L17.9872103,47.3583284 C17.8432731,47.0020443 17.5402093,46.735438 17.1701194,46.6399354 C16.7997885,46.5440688 16.406794,46.6308341 16.11024,46.8734131 L14.0109746,48.5900325 L6.96226999,48.5900325 C4.45265097,48.5900325 2.41100876,46.5347248 2.41100876,44.0085785 C2.41100876,41.4823109 4.45277152,39.4270032 6.96226999,39.4270032 L39.9851336,39.4270032 L39.9851336,48.5900325 L39.9851336,48.5900325 Z M46.03773,48.5900325 L42.3961424,48.5900325 L42.3961424,39.4270032 L46.03773,39.4270032 C48.547349,39.4270032 50.5889912,41.4823109 50.5889912,44.0085785 C50.5888707,46.5347248 48.5471079,48.5900325 46.03773,48.5900325 Z" id="Shape"></path>
    <path d="M47.255873,41.4609883 C46.8228832,40.9352894 46.0278255,40.8458526 45.4801725,41.2617275 C44.9323931,41.6773597 44.8396005,42.4405453 45.2725903,42.9662442 L46.1240314,44.0000458 L45.2725903,45.0338474 C44.8396005,45.5595463 44.9325195,46.3227319 45.4801725,46.7383641 C45.7122803,46.9145679 45.9887617,47 46.2633467,47 C46.636666,46.9998786 47.0063192,46.8419991 47.255873,46.5391034 L48.7274061,44.7526738 C49.0908646,44.3115576 49.0908646,43.6884127 48.7274061,43.2474178 L47.255873,41.4609883 Z" id="Path"></path>
    <path d="M7.114,44.0729103 C7.1515,44.1644192 7.198,44.2514276 7.252,44.3324354 C7.3075,44.4149434 7.3705,44.4914508 7.4395,44.5604575 C7.5085,44.6296142 7.585,44.6926203 7.6675,44.7464755 C7.7485,44.8004807 7.8355,44.8469852 7.9255,44.8844888 C8.017,44.9219925 8.11,44.9504952 8.206,44.9699971 C8.3035,44.989499 8.401,45 8.5,45 C8.5975,45 8.695,44.989499 8.7925,44.9699971 C8.8885,44.9504952 8.983,44.9219925 9.073,44.8844888 C9.163,44.8469852 9.2515,44.8004807 9.3325,44.7464755 C9.4135,44.6926203 9.4915,44.6296142 9.5605,44.5604575 C9.6295,44.4914508 9.6925,44.4149434 9.7465,44.3324354 C9.8005,44.2514276 9.847,44.1644192 9.8845,44.0729103 C9.922,43.9829016 9.9505,43.8885425 9.97,43.7925332 C9.9895,43.6963739 10,43.5973643 10,43.5 C10,43.4024955 9.9895,43.3033359 9.97,43.2059765 C9.9505,43.1114673 9.922,43.0169582 9.8845,42.9254493 C9.847,42.8352906 9.8005,42.7484322 9.7465,42.6674244 C9.6925,42.5847664 9.6295,42.508259 9.5605,42.4392523 C9.4915,42.3702456 9.4135,42.3072395 9.3325,42.2517341 C9.2515,42.1977289 9.163,42.1512244 9.073,42.1137208 C8.983,42.0762172 8.8885,42.0477144 8.7925,42.0282125 C8.305,41.9308531 7.7875,42.0897185 7.4395,42.4392523 C7.3705,42.508259 7.3075,42.5847664 7.252,42.6674244 C7.198,42.7484322 7.1515,42.8352906 7.114,42.9254493 C7.0765,43.0169582 7.048,43.1114673 7.0285,43.2059765 C7.009,43.3033359 7,43.4024955 7,43.5 C7,43.5973643 7.009,43.6965239 7.0285,43.7925332 C7.048,43.8885425 7.0765,43.9830516 7.114,44.0729103 Z" id="Path"></path>
    <path d="M14.114,44.0729279 C14.1515,44.164435 14.198,44.2514418 14.252,44.3324481 C14.3075,44.4149545 14.3705,44.4914604 14.4395,44.5604658 C14.5085,44.6296212 14.585,44.6926261 14.6675,44.7464803 C14.7485,44.8004845 14.8355,44.8469881 14.9255,44.884491 C15.017,44.9219939 15.1115,44.9504961 15.206,44.9699977 C15.3035,44.9894992 15.4025,45 15.5,45 C15.5975,45 15.6965,44.9894992 15.7925,44.9699977 C15.8885,44.9504961 15.983,44.9219939 16.073,44.884491 C16.1645,44.8469881 16.2515,44.8004845 16.3325,44.7464803 C16.415,44.6926261 16.4915,44.6296212 16.5605,44.5604658 C16.6295,44.4914604 16.6925,44.4149545 16.7465,44.3324481 C16.8005,44.2514418 16.847,44.164435 16.8845,44.0729279 C16.922,43.9829209 16.9505,43.8885635 16.97,43.7925561 C16.9895,43.6963986 17,43.5973909 17,43.5000333 C17,43.4025257 16.9895,43.303368 16.97,43.2060105 C16.9505,43.1115031 16.922,43.0169958 16.8845,42.9254886 C16.847,42.8353316 16.8005,42.7484749 16.7465,42.6674686 C16.6925,42.5848121 16.6295,42.5083062 16.5605,42.4393008 C16.2125,42.0897736 15.695,41.9307613 15.206,42.0282688 C15.1115,42.0477704 15.017,42.0762726 14.9255,42.1137755 C14.8355,42.1512784 14.7485,42.197782 14.6675,42.2517862 C14.585,42.3072905 14.5085,42.3702954 14.4395,42.4393008 C14.3705,42.5083062 14.3075,42.5848121 14.252,42.6674686 C14.198,42.7484749 14.1515,42.8353316 14.114,42.9254886 C14.0765,43.0169958 14.048,43.1115031 14.0285,43.2060105 C14.009,43.303368 14,43.4025257 14,43.5000333 C14,43.5973909 14.009,43.6965486 14.0285,43.7925561 C14.048,43.8885635 14.0765,43.9830709 14.114,44.0729279 Z" id="Path"></path>
    <path d="M20.1155,44.0729279 C20.153,44.164435 20.1995,44.2514418 20.2535,44.3324481 C20.3075,44.4149545 20.3705,44.4914604 20.4395,44.5604658 C20.5085,44.6296212 20.585,44.6926261 20.6675,44.7464803 C20.7485,44.8004845 20.8355,44.8469881 20.927,44.884491 C21.017,44.9219939 21.1115,44.9504961 21.2075,44.9699977 C21.3035,44.9894992 21.4025,45 21.5,45 C21.5975,45 21.6965,44.9894992 21.7925,44.9699977 C21.8885,44.9504961 21.983,44.9219939 22.073,44.884491 C22.1645,44.8469881 22.2515,44.8004845 22.3325,44.7464803 C22.415,44.6926261 22.4915,44.6296212 22.5605,44.5604658 C22.6295,44.4914604 22.6925,44.4149545 22.7465,44.3324481 C22.8005,44.2514418 22.847,44.164435 22.8845,44.0729279 C22.922,43.9829209 22.9505,43.8885635 22.97,43.7925561 C22.9895,43.6963986 23,43.5973909 23,43.5000333 C23,43.4025257 22.9895,43.303368 22.97,43.2060105 C22.952,43.1115031 22.922,43.0169958 22.8845,42.9254886 C22.847,42.8353316 22.8005,42.7484749 22.7465,42.6674686 C22.6925,42.5848121 22.6295,42.5083062 22.5605,42.4393008 C22.2125,42.0897736 21.6935,41.9307613 21.2075,42.0282688 C21.1115,42.0477704 21.017,42.0762726 20.9255,42.1137755 C20.8355,42.1512784 20.7485,42.197782 20.6675,42.2517862 C20.585,42.3072905 20.5085,42.3702954 20.4395,42.4393008 C20.3705,42.5083062 20.3075,42.5848121 20.2535,42.6674686 C20.1995,42.7484749 20.153,42.8353316 20.1155,42.9254886 C20.078,43.0169958 20.048,43.1115031 20.03,43.2060105 C20.0105,43.303368 20,43.4025257 20,43.5000333 C20,43.5973909 20.0105,43.6965486 20.03,43.7925561 C20.048,43.8885635 20.078,43.9830709 20.1155,44.0729279 Z" id="Path"></path>
    <path d="M27.1155,44.0729279 C27.153,44.164435 27.1995,44.2514418 27.2535,44.3324481 C27.3075,44.4149545 27.3705,44.4914604 27.4395,44.5604658 C27.5085,44.6296212 27.585,44.6926261 27.6675,44.7464803 C27.7485,44.8004845 27.8355,44.8469881 27.927,44.884491 C28.017,44.9219939 28.1115,44.9504961 28.2075,44.9699977 C28.3035,44.9894992 28.4025,45 28.5,45 C28.5975,45 28.6965,44.9894992 28.7925,44.9699977 C28.8885,44.9504961 28.983,44.9219939 29.073,44.884491 C29.1645,44.8469881 29.2515,44.8004845 29.3325,44.7464803 C29.415,44.6926261 29.4915,44.6296212 29.5605,44.5604658 C29.6295,44.4914604 29.6925,44.4149545 29.7465,44.3324481 C29.8005,44.2514418 29.847,44.164435 29.8845,44.0729279 C29.922,43.9829209 29.952,43.8885635 29.97,43.7925561 C29.9895,43.6963986 30,43.5973909 30,43.5000333 C30,43.4025257 29.9895,43.303368 29.97,43.2060105 C29.952,43.1115031 29.922,43.0169958 29.8845,42.9254886 C29.847,42.8353316 29.8005,42.7484749 29.7465,42.6674686 C29.6925,42.5848121 29.6295,42.5083062 29.5605,42.4393008 C29.2125,42.0897736 28.6935,41.9307613 28.2075,42.0282688 C28.1115,42.0477704 28.017,42.0762726 27.927,42.1137755 C27.8355,42.1512784 27.7485,42.197782 27.6675,42.2517862 C27.585,42.3072905 27.5085,42.3702954 27.4395,42.4393008 C27.3705,42.5083062 27.3075,42.5848121 27.2535,42.6674686 C27.1995,42.7484749 27.153,42.8353316 27.1155,42.9254886 C27.078,43.0169958 27.0495,43.1115031 27.03,43.2060105 C27.0105,43.303368 27,43.4025257 27,43.5000333 C27,43.5973909 27.0105,43.6965486 27.03,43.7925561 C27.0495,43.8885635 27.078,43.9830709 27.1155,44.0729279 Z" id="Path"></path>
    <path d="M33.1155,44.0732317 C33.153,44.1647088 33.1995,44.2516871 33.2535,44.3326668 C33.3075,44.4151462 33.3705,44.4916271 33.4395,44.5606098 C33.5085,44.6297426 33.585,44.6927268 33.6675,44.7465634 C33.7485,44.8005499 33.8355,44.8470382 33.927,44.8845289 C34.017,44.9220195 34.1115,44.9505124 34.2075,44.9700075 C34.3035,44.9895026 34.4025,45 34.5,45 C34.5975,45 34.6965,44.9895026 34.794,44.9700075 C34.8885,44.9505124 34.983,44.9220195 35.0745,44.8845289 C35.1645,44.8470382 35.2515,44.8005499 35.3325,44.7465634 C35.415,44.6927268 35.4915,44.6297426 35.5605,44.5606098 C35.6295,44.4916271 35.6925,44.4151462 35.748,44.3326668 C35.802,44.2516871 35.8485,44.1647088 35.886,44.0732317 C35.9235,43.9832542 35.952,43.8889278 35.9715,43.7929518 C35.991,43.6968258 36,43.5978505 36,43.5005249 C36,43.4030492 35.991,43.303924 35.9715,43.2065984 C35.952,43.112122 35.9235,43.0176456 35.886,42.9261685 C35.8485,42.836041 35.802,42.7492127 35.748,42.6682329 C35.6925,42.5856036 35.6295,42.5091227 35.5605,42.44014 C35.4915,42.3711572 35.415,42.308173 35.3325,42.2526868 C35.2515,42.1987003 35.1645,42.1522119 35.0745,42.1147213 C34.983,42.0772307 34.8885,42.0487378 34.794,42.0292427 C34.6005,41.9902524 34.401,41.9902524 34.2075,42.0292427 C34.1115,42.0487378 34.017,42.0772307 33.927,42.1147213 C33.8355,42.1522119 33.7485,42.1987003 33.6675,42.2526868 C33.585,42.308173 33.5085,42.3711572 33.4395,42.44014 C33.3705,42.5091227 33.3075,42.5856036 33.2535,42.6682329 C33.1995,42.7492127 33.153,42.836041 33.1155,42.9261685 C33.078,43.0176456 33.0495,43.112122 33.03,43.2065984 C33.0105,43.303924 33,43.4030492 33,43.5005249 C33,43.5978505 33.0105,43.6969758 33.03,43.7929518 C33.0495,43.8889278 33.078,43.9834041 33.1155,44.0732317 Z" id="Path"></path>
    <path d="M15.5142815,31.2653027 C15.5437209,31.2941235 15.5741216,31.3220783 15.606565,31.3479304 C18.3658192,33.5454806 21.6279466,34.7892252 25.090262,34.9747664 C25.114895,34.976127 25.1396481,34.977364 25.1642811,34.9786009 C25.2741082,34.9840435 25.3842957,34.9882491 25.4944832,34.9915888 C25.5269266,34.9925784 25.5593701,34.9938153 25.5918135,34.9946812 C25.7277155,34.9978972 25.8637376,35 26.0002403,35 C26.137464,35 26.2743273,34.9978972 26.4110704,34.9946812 C26.4423122,34.993939 26.4733137,34.992702 26.5044353,34.9917125 C26.6173866,34.9883728 26.7299773,34.9840435 26.8424479,34.9784772 C26.8640768,34.977364 26.8855856,34.9762507 26.9070944,34.9750138 C30.4261258,34.7876172 33.7318716,33.510104 36.5165999,31.2503357 C36.554811,31.2192885 36.5907391,31.1857674 36.6246245,31.1506383 C40.5087046,27.9406516 43,23.014656 43,17.5001237 C43,7.85049619 35.3739901,0 26.0002403,0 C16.6264905,0 9,7.85049619 9,17.5 C9,23.0802139 11.5502944,28.0586558 15.5142815,31.2653027 Z M27.5611301,32.4399023 C27.4866303,32.4479424 27.4120104,32.4553641 27.3372704,32.462291 C27.2545997,32.4700837 27.1720492,32.4778764 27.089018,32.4841848 C26.9449451,32.4949462 26.8005117,32.5036048 26.6555977,32.5100369 C26.6059713,32.5123871 26.5563448,32.5141188 26.5065982,32.5158505 C26.3382529,32.5216641 26.169547,32.5258697 26.0001202,32.5258697 C25.8328562,32.5258697 25.6663133,32.5217878 25.5000106,32.5160979 C25.450985,32.5143662 25.4020795,32.5125108 25.3532942,32.510408 C25.214989,32.5042233 25.0771645,32.4960595 24.9395803,32.4860402 C24.8595531,32.4801029 24.7797663,32.4729287 24.7000997,32.4656307 C24.6138242,32.457838 24.5276688,32.4494268 24.4416336,32.4401497 C24.3456251,32.4296357 24.2497367,32.4187506 24.1542088,32.4062575 C24.1372661,32.404031 24.1204436,32.4014334 24.1035009,32.3992069 C21.6811779,32.0742624 19.4436622,31.1359187 17.5431978,29.7406487 L17.5431978,27.5011663 C17.5431978,24.5539059 18.9651816,21.9438358 21.1384112,20.3542424 C22.4967097,21.4469564 24.2035949,22.10068 26.0570764,22.10068 C27.9105579,22.10068 29.6175633,21.4470801 30.9757416,20.3542424 C33.1489712,21.9438358 34.5710752,24.5539059 34.5710752,27.5011663 L34.5710752,29.6549287 L34.5710752,29.6549287 C32.5595821,31.1621418 30.1616517,32.1540452 27.5611301,32.4399023 Z M26.0002403,2.47388287 C34.0489762,2.47388287 40.597143,9.21447151 40.597143,17.5 C40.597143,21.2877621 39.22803,24.7521876 36.9732112,27.397758 C36.9413686,23.7860127 35.2463793,20.576026 32.6397294,18.5416284 C33.5352884,17.2111742 34.0618334,15.5985736 34.0618334,13.8609183 C34.0618334,13.4521092 34.032394,13.0409498 33.9742361,12.6388202 C33.8765453,11.9632028 33.2656474,11.4969995 32.6088481,11.5974392 C31.9524092,11.6980025 31.4995229,12.3271109 31.5972137,13.002852 C31.6379482,13.284751 31.6586159,13.5734531 31.6586159,13.8609183 C31.6586159,15.1353391 31.2541544,16.3140206 30.5714003,17.2695578 C30.0174587,18.0448727 29.2800314,18.6723731 28.4254472,19.084522 C27.7056836,19.4317314 26.9033695,19.6269208 26.0574369,19.6269208 C25.2115043,19.6269208 24.4091902,19.4317314 23.6894265,19.084522 C22.8348424,18.6723731 22.0974151,18.0448727 21.5434735,17.2695578 C20.8607194,16.3140206 20.4562579,15.1354628 20.4562579,13.8609183 C20.4562579,10.6816077 22.9689419,8.09503951 26.0574369,8.09503951 C26.4825661,8.09503951 26.9058928,8.14402239 27.3158817,8.24087491 C27.9634287,8.39413195 28.607491,7.97753008 28.7556493,7.31156081 C28.9039278,6.64571523 28.4998268,5.98221985 27.8530008,5.82958128 C27.2672166,5.69129123 26.6630477,5.62115665 26.0575571,5.62115665 C21.643928,5.62115665 18.0531606,9.31750873 18.0531606,13.8609183 C18.0531606,15.5985736 18.5797055,17.2111742 19.4752645,18.5416284 C16.8436212,20.5954459 15.140461,23.8472413 15.140461,27.5011663 L15.140461,27.5286264 C12.8182319,24.8669758 11.4033376,21.3505987 11.4033376,17.5 C11.4033376,9.21447151 17.9513843,2.47388287 26.0002403,2.47388287 Z" id="Shape"></path>
    <path d="M31.1155,10.074257 C31.153,10.1642806 31.1995,10.2513035 31.2535,10.3323247 C31.3075,10.4148464 31.3705,10.4913665 31.4395,10.5603846 C31.5085,10.6310532 31.585,10.6925693 31.6675,10.7479338 C31.7485,10.801948 31.8355,10.8486103 31.927,10.8861201 C32.017,10.92363 32.1115,10.9519874 32.2075,10.9714925 C32.3035,10.9909976 32.4025,11 32.5,11 C32.5975,11 32.6965,10.9908476 32.7925,10.9714925 C32.8885,10.9519874 32.983,10.92363 33.0745,10.8861201 C33.1645,10.8486103 33.2515,10.801948 33.3325,10.7479338 C33.415,10.6925693 33.4915,10.6310532 33.5605,10.5603846 C33.6295,10.4913665 33.6925,10.4148464 33.7465,10.3323247 C33.8005,10.2513035 33.847,10.1642806 33.8845,10.074257 C33.922,9.98273297 33.952,9.88970855 33.97,9.79368334 C33.9895,9.69615774 34,9.59863214 34,9.49960615 C34,9.40208055 33.9895,9.30290451 33.97,9.20702935 C33.952,9.11100414 33.922,9.01632929 33.8845,8.92645569 C33.847,8.8365821 33.8005,8.74805887 33.7465,8.6670376 C33.6925,8.5843659 33.6295,8.50784581 33.5605,8.43882769 C33.4915,8.36980958 33.415,8.30679303 33.3325,8.25277885 C33.2515,8.19891472 33.1645,8.15225247 33.0745,8.11474262 C32.983,8.07723277 32.8885,8.04887533 32.7925,8.02937021 C32.599,7.99020993 32.401,7.99020993 32.2075,8.02937021 C32.1115,8.04887533 32.017,8.07723277 31.927,8.11474262 C31.8355,8.15225247 31.7485,8.19891472 31.6675,8.25277885 C31.585,8.30679303 31.5085,8.36980958 31.4395,8.43882769 C31.3705,8.50784581 31.3075,8.5843659 31.2535,8.6670376 C31.1995,8.74805887 31.153,8.8365821 31.1155,8.92645569 C31.078,9.01632929 31.0495,9.11100414 31.03,9.20702935 C31.0105,9.30305455 31,9.40208055 31,9.49960615 C31,9.59863214 31.0105,9.69615774 31.03,9.79368334 C31.0495,9.88970855 31.078,9.98273297 31.1155,10.074257 Z" id="Path"></path>
  </g>
</svg>
